<?xml version="1.0" encoding="UTF-8" standalone="no"?>
<svg
   xmlns:dc="http://purl.org/dc/elements/1.1/"
   xmlns:cc="http://creativecommons.org/ns#"
   xmlns:rdf="http://www.w3.org/1999/02/22-rdf-syntax-ns#"
   xmlns:svg="http://www.w3.org/2000/svg"
   xmlns="http://www.w3.org/2000/svg"
   xmlns:sodipodi="http://sodipodi.sourceforge.net/DTD/sodipodi-0.dtd"
   xmlns:inkscape="http://www.inkscape.org/namespaces/inkscape"
   fill="#FFFFFF"
   height="48"
   viewBox="0 0 24 24"
   width="48"
   id="svg2"
   version="1.1"
   inkscape:version="0.91 r13725"
   sodipodi:docname="user.svg">
  <metadata
     id="metadata12">
    <rdf:RDF>
      <cc:Work
         rdf:about="">
        <dc:format>image/svg+xml</dc:format>
        <dc:type
           rdf:resource="http://purl.org/dc/dcmitype/StillImage" />
      </cc:Work>
    </rdf:RDF>
  </metadata>
  <defs
     id="defs10" />
  <sodipodi:namedview
     pagecolor="#ffffff"
     bordercolor="#666666"
     borderopacity="1"
     objecttolerance="10"
     gridtolerance="10"
     guidetolerance="10"
     inkscape:pageopacity="0"
     inkscape:pageshadow="2"
     inkscape:window-width="1280"
     inkscape:window-height="747"
     id="namedview8"
     showgrid="false"
     inkscape:zoom="4.9166667"
     inkscape:cx="16.576271"
     inkscape:cy="24"
     inkscape:window-x="0"
     inkscape:window-y="0"
     inkscape:window-maximized="1"
     inkscape:current-layer="svg2" />
  <path
     d="M 12,0 C 5.376,0 0,5.376 0,12 0,18.624 5.376,24 12,24 18.624,24 24,18.624 24,12 24,5.376 18.624,0 12,0 Z m 0,3.6 c 1.992,0 3.6,1.608 3.6,3.6 0,1.992 -1.608,3.6 -3.6,3.6 -1.992,0 -3.6,-1.608 -3.6,-3.6 0,-1.992 1.608,-3.6 3.6,-3.6 z m 0,17.04 c -3,0 -5.652,-1.536 -7.2,-3.864 0.036,-2.388 4.8,-3.696 7.2,-3.696 2.388,0 7.164,1.308 7.2,3.696 C 17.652,19.104 15,20.64 12,20.64 Z"
     id="path4"
     style="fill:#ffffff"
     inkscape:connector-curvature="0" />
  <path
     d="M0 0h24v24H0z"
     fill="none"
     id="path6" />
</svg>
