<?xml version="1.0" encoding="UTF-8" standalone="no"?>
<!-- Created with Inkscape (http://www.inkscape.org/) -->

<svg
   xmlns:dc="http://purl.org/dc/elements/1.1/"
   xmlns:cc="http://creativecommons.org/ns#"
   xmlns:rdf="http://www.w3.org/1999/02/22-rdf-syntax-ns#"
   xmlns:svg="http://www.w3.org/2000/svg"
   xmlns="http://www.w3.org/2000/svg"
   xmlns:sodipodi="http://sodipodi.sourceforge.net/DTD/sodipodi-0.dtd"
   xmlns:inkscape="http://www.inkscape.org/namespaces/inkscape"
   width="300"
   height="300"
   viewBox="0 0 300 300"
   id="svg4149"
   version="1.1"
   inkscape:version="0.91 r13725"
   sodipodi:docname="user-c.svg">
  <defs
     id="defs4151" />
  <sodipodi:namedview
     id="base"
     pagecolor="#ffffff"
     bordercolor="#666666"
     borderopacity="1.0"
     inkscape:pageopacity="0.0"
     inkscape:pageshadow="2"
     inkscape:zoom="0.98994949"
     inkscape:cx="60.477233"
     inkscape:cy="197.17981"
     inkscape:document-units="px"
     inkscape:current-layer="layer1"
     showgrid="false"
     units="px"
     inkscape:window-width="1280"
     inkscape:window-height="747"
     inkscape:window-x="0"
     inkscape:window-y="0"
     inkscape:window-maximized="1" />
  <metadata
     id="metadata4154">
    <rdf:RDF>
      <cc:Work
         rdf:about="">
        <dc:format>image/svg+xml</dc:format>
        <dc:type
           rdf:resource="http://purl.org/dc/dcmitype/StillImage" />
        <dc:title />
      </cc:Work>
    </rdf:RDF>
  </metadata>
  <g
     inkscape:label="Layer 1"
     inkscape:groupmode="layer"
     id="layer1"
     transform="translate(0,-752.36216)">
    <circle
       style="opacity:1;fill:#5fd3bc;fill-opacity:1"
       id="path4697"
       cx="150"
       cy="902.36218"
       r="150" />
    <path
       style="font-style:normal;font-weight:normal;font-size:147.02081299px;line-height:125%;font-family:sans-serif;letter-spacing:0px;word-spacing:0px;fill:#ffffff;fill-opacity:1;stroke:none;stroke-width:1px;stroke-linecap:butt;stroke-linejoin:miter;stroke-opacity:1"
       d="M 150.64648 96.230469 C 139.01691 96.230469 129.63675 100.46657 122.50586 108.9375 C 115.37497 117.36057 111.80859 128.22468 111.80859 141.5293 L 111.80859 158.54297 C 111.80859 171.89544 115.37497 182.78396 122.50586 191.20703 C 129.63675 199.58224 139.01691 203.76953 150.64648 203.76953 C 161.6539 203.76953 170.4356 200.77721 176.99219 194.79492 C 183.54878 188.76477 187.2821 180.51027 188.19141 170.0293 L 188.04688 169.59766 L 180.00781 169.59766 C 178.90707 178.54717 175.93916 185.27085 171.10547 189.76953 C 166.27178 194.26821 159.45242 196.51758 150.64648 196.51758 C 141.50554 196.51758 134.15899 193.00002 128.60742 185.96484 C 123.10371 178.88181 120.35156 169.74182 120.35156 158.54297 L 120.35156 141.38477 C 120.35156 130.32949 123.10371 121.26077 128.60742 114.17773 C 134.15899 107.0947 141.50554 103.55273 150.64648 103.55273 C 159.45242 103.55273 166.24737 105.85091 171.0332 110.44531 C 175.8669 115.03971 178.85921 121.66772 180.00781 130.33008 L 188.04688 130.33008 L 188.19141 129.90039 C 187.2821 119.22798 183.57319 110.94712 177.06445 105.06055 C 170.55572 99.173971 161.74962 96.230469 150.64648 96.230469 z "
       transform="translate(0,752.36216)"
       id="text4699" />
  </g>
</svg>
