<?xml version="1.0" encoding="UTF-8" standalone="no"?>
<!-- Created with Inkscape (http://www.inkscape.org/) -->

<svg
   xmlns:dc="http://purl.org/dc/elements/1.1/"
   xmlns:cc="http://creativecommons.org/ns#"
   xmlns:rdf="http://www.w3.org/1999/02/22-rdf-syntax-ns#"
   xmlns:svg="http://www.w3.org/2000/svg"
   xmlns="http://www.w3.org/2000/svg"
   xmlns:sodipodi="http://sodipodi.sourceforge.net/DTD/sodipodi-0.dtd"
   xmlns:inkscape="http://www.inkscape.org/namespaces/inkscape"
   width="300"
   height="300"
   viewBox="0 0 300 300"
   id="svg4149"
   version="1.1"
   inkscape:version="0.91 r13725"
   sodipodi:docname="user-j.svg">
  <defs
     id="defs4151" />
  <sodipodi:namedview
     id="base"
     pagecolor="#ffffff"
     bordercolor="#666666"
     borderopacity="1.0"
     inkscape:pageopacity="0.0"
     inkscape:pageshadow="2"
     inkscape:zoom="0.98994949"
     inkscape:cx="-20.334971"
     inkscape:cy="197.17981"
     inkscape:document-units="px"
     inkscape:current-layer="layer1"
     showgrid="false"
     units="px"
     inkscape:window-width="1280"
     inkscape:window-height="747"
     inkscape:window-x="0"
     inkscape:window-y="0"
     inkscape:window-maximized="1" />
  <metadata
     id="metadata4154">
    <rdf:RDF>
      <cc:Work
         rdf:about="">
        <dc:format>image/svg+xml</dc:format>
        <dc:type
           rdf:resource="http://purl.org/dc/dcmitype/StillImage" />
        <dc:title />
      </cc:Work>
    </rdf:RDF>
  </metadata>
  <g
     inkscape:label="Layer 1"
     inkscape:groupmode="layer"
     id="layer1"
     transform="translate(0,-752.36216)">
    <circle
       style="opacity:1;fill:#ffcc00;fill-opacity:1"
       id="path4697"
       cx="150"
       cy="902.36218"
       r="150" />
    <path
       style="font-style:normal;font-weight:normal;font-size:147.02081299px;line-height:125%;font-family:sans-serif;letter-spacing:0px;word-spacing:0px;fill:#ffffff;fill-opacity:1;stroke:none;stroke-width:1px;stroke-linecap:butt;stroke-linejoin:miter;stroke-opacity:1"
       d="m 172.36936,850.10044 0,74.875 c 0,7.27447 -2.05801,13.09021 -6.17383,17.44531 -4.11581,4.30725 -9.35749,6.45899 -15.72265,6.45899 -7.4659,0 -13.20842,-1.93793 -17.22852,-5.81446 -4.0201,-3.92438 -6.02929,-9.66689 -6.02929,-17.22851 l -8.04102,0 -0.14258,0.43164 c -0.23929,9.7631 2.48846,17.18092 8.1836,22.25391 5.69514,5.07298 13.44685,7.60937 23.25781,7.60937 8.99736,0 16.32146,-2.80096 21.96875,-8.40039 5.69514,-5.64728 8.54101,-13.23205 8.54101,-22.75586 l 0,-74.875 -8.61328,0 z"
       id="text4699"
       inkscape:connector-curvature="0" />
  </g>
</svg>
